<svg xmlns="http://www.w3.org/2000/svg" viewBox="0 0 230 230"><title>Snapchat logo</title><path d="M577.35,382A36.65,36.65,0,0,1,614,418.65v156.7A36.65,36.65,0,0,1,577.35,612H420.65A36.65,36.65,0,0,1,384,575.35V418.65A36.65,36.65,0,0,1,420.65,382Z" transform="translate(-384 -382)" style="fill:#fffc00"/><path d="M576.55,536.43c-.68-2.24-3.92-3.82-3.92-3.82h0l-.81-.42a62.6,62.6,0,0,1-14.23-9.33,48.25,48.25,0,0,1-8.25-9.39,35.45,35.45,0,0,1-4.55-9.38,3.19,3.19,0,0,1,0-2.32,3.85,3.85,0,0,1,1.13-1.27c1.82-1.29,4.76-3.2,6.57-4.36,1.57-1,2.9-1.89,3.7-2.44a16.14,16.14,0,0,0,5.29-5.54,9.54,9.54,0,0,0,.45-8c-1.39-3.68-4.83-5.87-9.2-5.87a14.54,14.54,0,0,0-3,.32,46.33,46.33,0,0,0-6.86,2.21.21.21,0,0,1-.29-.21,140.56,140.56,0,0,0-.1-17.82,43.9,43.9,0,0,0-3.57-14.65,40.26,40.26,0,0,0-16.45-17.64,49.07,49.07,0,0,0-47,0,40.18,40.18,0,0,0-16.46,17.64,43.41,43.41,0,0,0-3.57,14.65,137.41,137.41,0,0,0-.1,17.82.22.22,0,0,1-.31.21,46.33,46.33,0,0,0-6.86-2.21,14.3,14.3,0,0,0-3-.32c-4.36,0-7.8,2.19-9.2,5.87a9.54,9.54,0,0,0,.45,8,16.3,16.3,0,0,0,5.29,5.54c.77.55,2.13,1.42,3.7,2.44,1.76,1.15,4.62,3,6.46,4.28a3.82,3.82,0,0,1,1.24,1.36,3.3,3.3,0,0,1,0,2.42,35.56,35.56,0,0,1-4.52,9.28,47.79,47.79,0,0,1-8.25,9.39,62.6,62.6,0,0,1-14.23,9.33c-.26.13-.56.27-.89.47h0s-3.23,1.65-3.84,3.78c-.9,3.15,1.5,6.1,3.94,7.68a42.26,42.26,0,0,0,11.7,4.73c.79.21,1.5.4,2.15.6a4.31,4.31,0,0,1,1.86,1.08,5.8,5.8,0,0,1,.81,2.57h0a7.58,7.58,0,0,0,3.05,5.13c2.26,1.55,5.12,1.66,8.75,1.81a47.46,47.46,0,0,1,13.91,2.11A35.66,35.66,0,0,1,475,566c5.49,3.37,12.31,7.57,24,7.57s18.54-4.21,24.06-7.6a36.07,36.07,0,0,1,7.31-3.79A47.46,47.46,0,0,1,544.24,560c3.63-.15,6.49-.24,8.75-1.81a7.85,7.85,0,0,0,3.11-5.47,4.86,4.86,0,0,1,.74-2.21,4.24,4.24,0,0,1,1.79-1c.66-.21,1.4-.4,2.23-.63a41.51,41.51,0,0,0,10.68-4.08c5.2-3,5.55-6.57,5-8.36Z" transform="translate(-384 -382)" style="fill:#fff"/><path d="M581,534.68c-1.15-3.13-3.34-4.79-5.83-6.18a14.13,14.13,0,0,0-1.26-.66c-.74-.39-1.5-.76-2.26-1.15-7.76-4.12-13.83-9.31-18-15.46a36.22,36.22,0,0,1-3.1-5.49,2.62,2.62,0,0,1-.08-2.15,3.41,3.41,0,0,1,1-1c1.34-.89,2.71-1.78,3.65-2.37,1.66-1.08,3-1.94,3.82-2.52a20.75,20.75,0,0,0,6.81-7.25,14.41,14.41,0,0,0,.69-12c-2.1-5.55-7.36-9-13.72-9a18.61,18.61,0,0,0-4,.44l-1,.24a115.74,115.74,0,0,0-.37-11.75c-1.19-13.88-6.05-21.16-11.12-27a44.28,44.28,0,0,0-11.31-9.12,53.84,53.84,0,0,0-51.81,0,43.89,43.89,0,0,0-11.33,9.12c-5.07,5.79-9.93,13.07-11.12,27-.34,3.94-.42,8-.37,11.75l-1-.24a18.73,18.73,0,0,0-4-.44c-6.36,0-11.62,3.45-13.72,9a14.41,14.41,0,0,0,.69,12,20.9,20.9,0,0,0,6.81,7.25c.86.6,2.16,1.45,3.82,2.52.9.58,2.21,1.44,3.5,2.29a3.9,3.9,0,0,1,1.13,1.13,2.64,2.64,0,0,1-.13,2.24,35.61,35.61,0,0,1-3.05,5.37,49.07,49.07,0,0,1-17.51,15.19c-4,2.11-8.12,3.52-9.86,8.26-1.32,3.58-.45,7.67,2.89,11.1h0a16.88,16.88,0,0,0,4.23,3.2,45.82,45.82,0,0,0,10.33,4.13,6.6,6.6,0,0,1,2.08.94c1.23,1.07,1,2.68,2.68,5a11.67,11.67,0,0,0,3.05,3.11c3.41,2.36,7.25,2.5,11.31,2.66a43.23,43.23,0,0,1,12.57,1.87,32.35,32.35,0,0,1,6.37,3.36c5.68,3.5,13.48,8.28,26.5,8.28s20.87-4.81,26.6-8.31a33.48,33.48,0,0,1,6.29-3.32,43.23,43.23,0,0,1,12.57-1.87c4.07-.16,7.89-.31,11.31-2.66a11.89,11.89,0,0,0,3.49-3.79c1.16-2,1.15-3.39,2.24-4.34a6.55,6.55,0,0,1,2-.89A45.89,45.89,0,0,0,573.93,549a16.44,16.44,0,0,0,4.44-3.41l0,0c3.11-3.39,3.91-7.34,2.61-10.85Zm-11.57,6.21c-7.07,3.91-11.77,3.49-15.41,5.83-3.1,2-1.27,6.31-3.52,7.86-2.78,1.92-11-.13-21.53,3.36-8.71,2.89-14.28,11.17-30,11.17s-21.14-8.25-30-11.17c-10.57-3.49-18.77-1.44-21.53-3.36-2.24-1.55-.42-5.86-3.52-7.86-3.65-2.36-8.34-1.94-15.41-5.83-4.5-2.49-2-4-.45-4.74,25.6-12.38,29.66-31.52,29.86-33,.23-1.71.47-3.07-1.42-4.83s-9.94-6.71-12.18-8.28c-3.73-2.6-5.36-5.2-4.15-8.39.84-2.21,2.9-3,5.08-3a9.58,9.58,0,0,1,2,.23c4.08.89,8.05,2.94,10.35,3.49a3.44,3.44,0,0,0,.84.11c1.23,0,1.65-.61,1.57-2-.26-4.47-.9-13.19-.19-21.34,1-11.2,4.58-16.75,8.88-21.67,2.07-2.36,11.75-12.59,30.26-12.59s28.19,10.23,30.26,12.59c4.29,4.91,7.91,10.46,8.88,21.67a144.52,144.52,0,0,1-.19,21.34c-.1,1.47.36,2,1.57,2a3.35,3.35,0,0,0,.84-.11c2.29-.55,6.26-2.6,10.35-3.49a9.58,9.58,0,0,1,2-.23c2.18,0,4.24.84,5.08,3,1.21,3.2-.44,5.79-4.15,8.39-2.24,1.57-10.36,6.58-12.18,8.28s-1.65,3.1-1.42,4.83c.18,1.44,4.26,20.58,29.86,33C571.4,536.88,574,538.41,569.46,540.9Z" transform="translate(-384 -382)"/></svg>